<svg width="50" height="50" viewBox="0 0 50 50" fill="none" xmlns="http://www.w3.org/2000/svg">
<rect x="0.5" y="0.5" width="49" height="49" rx="24.5" fill="#FF8DC7"/>
<rect x="0.5" y="0.5" width="49" height="49" rx="24.5" stroke="#FF8DC7"/>
<path d="M41.6663 14.9998V34.9998C41.6663 35.9165 41.34 36.7012 40.6872 37.354C40.0344 38.0068 39.2497 38.3332 38.333 38.3332H11.6663C10.7497 38.3332 9.96495 38.0068 9.31217 37.354C8.6594 36.7012 8.33301 35.9165 8.33301 34.9998V14.9998C8.33301 14.0832 8.6594 13.2984 9.31217 12.6457C9.96495 11.9929 10.7497 11.6665 11.6663 11.6665H38.333C39.2497 11.6665 40.0344 11.9929 40.6872 12.6457C41.34 13.2984 41.6663 14.0832 41.6663 14.9998ZM11.6663 18.3332H38.333V14.9998H11.6663V18.3332ZM11.6663 24.9998V34.9998H38.333V24.9998H11.6663Z" fill="white"/>
</svg>
