<svg width="47" height="47" viewBox="0 0 47 47" fill="none" xmlns="http://www.w3.org/2000/svg">
<rect x="0.916016" y="0.75" width="45.5" height="45.5" rx="22.75" fill="#FF8DC7"/>
<path d="M12.1348 33.0625C13.7285 31.8438 15.5098 30.8828 17.4785 30.1797C19.4473 29.4766 21.5098 29.125 23.666 29.125C25.8223 29.125 27.8848 29.4766 29.8535 30.1797C31.8223 30.8828 33.6035 31.8438 35.1973 33.0625C36.291 31.7812 37.1426 30.3281 37.752 28.7031C38.3613 27.0781 38.666 25.3438 38.666 23.5C38.666 19.3438 37.2051 15.8047 34.2832 12.8828C31.3613 9.96094 27.8223 8.5 23.666 8.5C19.5098 8.5 15.9707 9.96094 13.0488 12.8828C10.127 15.8047 8.66602 19.3438 8.66602 23.5C8.66602 25.3438 8.9707 27.0781 9.58008 28.7031C10.1895 30.3281 11.041 31.7812 12.1348 33.0625ZM23.666 25.375C21.8223 25.375 20.2676 24.7422 19.002 23.4766C17.7363 22.2109 17.1035 20.6562 17.1035 18.8125C17.1035 16.9688 17.7363 15.4141 19.002 14.1484C20.2676 12.8828 21.8223 12.25 23.666 12.25C25.5098 12.25 27.0645 12.8828 28.3301 14.1484C29.5957 15.4141 30.2285 16.9688 30.2285 18.8125C30.2285 20.6562 29.5957 22.2109 28.3301 23.4766C27.0645 24.7422 25.5098 25.375 23.666 25.375ZM23.666 42.25C21.0723 42.25 18.6348 41.7578 16.3535 40.7734C14.0723 39.7891 12.0879 38.4531 10.4004 36.7656C8.71289 35.0781 7.37695 33.0938 6.39258 30.8125C5.4082 28.5313 4.91602 26.0938 4.91602 23.5C4.91602 20.9062 5.4082 18.4688 6.39258 16.1875C7.37695 13.9062 8.71289 11.9219 10.4004 10.2344C12.0879 8.54687 14.0723 7.21094 16.3535 6.22656C18.6348 5.24219 21.0723 4.75 23.666 4.75C26.2598 4.75 28.6973 5.24219 30.9785 6.22656C33.2598 7.21094 35.2441 8.54687 36.9316 10.2344C38.6191 11.9219 39.9551 13.9062 40.9395 16.1875C41.9238 18.4688 42.416 20.9062 42.416 23.5C42.416 26.0938 41.9238 28.5313 40.9395 30.8125C39.9551 33.0938 38.6191 35.0781 36.9316 36.7656C35.2441 38.4531 33.2598 39.7891 30.9785 40.7734C28.6973 41.7578 26.2598 42.25 23.666 42.25ZM23.666 38.5C25.3223 38.5 26.8848 38.2578 28.3535 37.7734C29.8223 37.2891 31.166 36.5938 32.3848 35.6875C31.166 34.7812 29.8223 34.0859 28.3535 33.6016C26.8848 33.1172 25.3223 32.875 23.666 32.875C22.0098 32.875 20.4473 33.1172 18.9785 33.6016C17.5098 34.0859 16.166 34.7812 14.9473 35.6875C16.166 36.5938 17.5098 37.2891 18.9785 37.7734C20.4473 38.2578 22.0098 38.5 23.666 38.5ZM23.666 21.625C24.4785 21.625 25.1504 21.3594 25.6816 20.8281C26.2129 20.2969 26.4785 19.625 26.4785 18.8125C26.4785 18 26.2129 17.3281 25.6816 16.7969C25.1504 16.2656 24.4785 16 23.666 16C22.8535 16 22.1816 16.2656 21.6504 16.7969C21.1191 17.3281 20.8535 18 20.8535 18.8125C20.8535 19.625 21.1191 20.2969 21.6504 20.8281C22.1816 21.3594 22.8535 21.625 23.666 21.625Z" fill="white"/>
</svg>
