<svg width="77" height="76" viewBox="0 0 77 76" fill="none" xmlns="http://www.w3.org/2000/svg">
<mask id="mask0_1002_2369" style="mask-type:alpha" maskUnits="userSpaceOnUse" x="0" y="0" width="77" height="76">
<rect width="77" height="76" fill="#D9D9D9"/>
</mask>
<g mask="url(#mask0_1002_2369)">
<path d="M43.6667 38.3333C40.1375 38.3333 37.1163 37.0931 34.6031 34.6125C32.0899 32.1319 30.8333 29.15 30.8333 25.6667C30.8333 22.1833 32.0899 19.2014 34.6031 16.7208C37.1163 14.2403 40.1375 13 43.6667 13C47.1958 13 50.217 14.2403 52.7302 16.7208C55.2434 19.2014 56.5 22.1833 56.5 25.6667C56.5 29.15 55.2434 32.1319 52.7302 34.6125C50.217 37.0931 47.1958 38.3333 43.6667 38.3333ZM18 63.6667V54.8C18 53.0056 18.4679 51.3563 19.4036 49.8521C20.3394 48.3479 21.5826 47.2 23.1333 46.4083C26.4486 44.7722 29.8174 43.5451 33.2396 42.7271C36.6618 41.909 40.1375 41.5 43.6667 41.5C47.1958 41.5 50.6715 41.909 54.0938 42.7271C57.516 43.5451 60.8847 44.7722 64.2 46.4083C65.7507 47.2 66.9939 48.3479 67.9297 49.8521C68.8655 51.3563 69.3333 53.0056 69.3333 54.8V63.6667H18ZM24.4167 57.3333H62.9167V54.8C62.9167 54.2194 62.7696 53.6917 62.4755 53.2167C62.1814 52.7417 61.7938 52.3722 61.3125 52.1083C58.425 50.6833 55.5108 49.6146 52.5698 48.9021C49.6288 48.1896 46.6611 47.8333 43.6667 47.8333C40.6722 47.8333 37.7045 48.1896 34.7635 48.9021C31.8226 49.6146 28.9083 50.6833 26.0208 52.1083C25.5396 52.3722 25.1519 52.7417 24.8578 53.2167C24.5637 53.6917 24.4167 54.2194 24.4167 54.8V57.3333ZM43.6667 32C45.4312 32 46.9418 31.3799 48.1984 30.1396C49.455 28.8993 50.0833 27.4083 50.0833 25.6667C50.0833 23.925 49.455 22.434 48.1984 21.1938C46.9418 19.9535 45.4312 19.3333 43.6667 19.3333C41.9021 19.3333 40.3915 19.9535 39.1349 21.1938C37.8783 22.434 37.25 23.925 37.25 25.6667C37.25 27.4083 37.8783 28.8993 39.1349 30.1396C40.3915 31.3799 41.9021 32 43.6667 32Z" fill="#B59D7A"/>
</g>
</svg>
