<svg width="50" height="50" viewBox="0 0 50 50" fill="none" xmlns="http://www.w3.org/2000/svg">
<rect width="50" height="50" rx="25" fill="#FF8DC7"/>
<path d="M41.6668 14.9998V34.9998C41.6668 35.9165 41.3404 36.7012 40.6877 37.354C40.0349 38.0068 39.2502 38.3332 38.3335 38.3332H11.6668C10.7502 38.3332 9.96544 38.0068 9.31266 37.354C8.65989 36.7012 8.3335 35.9165 8.3335 34.9998V14.9998C8.3335 14.0832 8.65989 13.2984 9.31266 12.6457C9.96544 11.9929 10.7502 11.6665 11.6668 11.6665H38.3335C39.2502 11.6665 40.0349 11.9929 40.6877 12.6457C41.3404 13.2984 41.6668 14.0832 41.6668 14.9998ZM11.6668 18.3332H38.3335V14.9998H11.6668V18.3332ZM11.6668 24.9998V34.9998H38.3335V24.9998H11.6668Z" fill="white"/>
</svg>
