<svg width="70" height="70" viewBox="0 0 70 70" fill="none" xmlns="http://www.w3.org/2000/svg">
<g clip-path="url(#clip0_707_2466)">
<mask id="mask0_707_2466" style="mask-type:alpha" maskUnits="userSpaceOnUse" x="0" y="0" width="70" height="70">
<rect width="70" height="70" fill="#D9D9D9"/>
</mask>
<g mask="url(#mask0_707_2466)">
<path d="M34.9997 64.1668C30.965 64.1668 27.1733 63.4012 23.6247 61.87C20.0761 60.3387 16.9893 58.2606 14.3643 55.6356C11.7393 53.0106 9.66113 49.9238 8.12988 46.3752C6.59863 42.8266 5.83301 39.0349 5.83301 35.0002C5.83301 30.9654 6.59863 27.1738 8.12988 23.6252C9.66113 20.0766 11.7393 16.9897 14.3643 14.3647C16.9893 11.7397 20.0761 9.66162 23.6247 8.13037C27.1733 6.59912 30.965 5.8335 34.9997 5.8335C39.0344 5.8335 42.8261 6.59912 46.3747 8.13037C49.9233 9.66162 53.0101 11.7397 55.6351 14.3647C58.2601 16.9897 60.3382 20.0766 61.8695 23.6252C63.4007 27.1738 64.1663 30.9654 64.1663 35.0002C64.1663 39.0349 63.4007 42.8266 61.8695 46.3752C60.3382 49.9238 58.2601 53.0106 55.6351 55.6356C53.0101 58.2606 49.9233 60.3387 46.3747 61.87C42.8261 63.4012 39.0344 64.1668 34.9997 64.1668ZM34.9997 51.0418C37.1872 48.8543 39.1316 46.5939 40.833 44.2606C42.2913 42.2675 43.6281 40.08 44.8434 37.6981C46.0587 35.3161 46.6663 32.9585 46.6663 30.6252C46.6663 27.4168 45.524 24.6703 43.2393 22.3856C40.9545 20.1009 38.208 18.9585 34.9997 18.9585C31.7913 18.9585 29.0448 20.1009 26.7601 22.3856C24.4754 24.6703 23.333 27.4168 23.333 30.6252C23.333 32.9585 23.9406 35.3161 25.1559 37.6981C26.3712 40.08 27.708 42.2675 29.1663 44.2606C30.8677 46.5939 32.8122 48.8543 34.9997 51.0418ZM34.9997 35.0002C33.7844 35.0002 32.7514 34.5748 31.9007 33.7241C31.05 32.8734 30.6247 31.8404 30.6247 30.6252C30.6247 29.4099 31.05 28.3769 31.9007 27.5262C32.7514 26.6755 33.7844 26.2502 34.9997 26.2502C36.215 26.2502 37.2479 26.6755 38.0986 27.5262C38.9493 28.3769 39.3747 29.4099 39.3747 30.6252C39.3747 31.8404 38.9493 32.8734 38.0986 33.7241C37.2479 34.5748 36.215 35.0002 34.9997 35.0002Z" fill="#FF8DC7"/>
<rect x="5" y="4" width="59" height="62" rx="29.5" fill="#FF8DC7"/>
<path d="M22.0002 51.6668C20.2641 51.6668 18.7884 51.0592 17.5731 49.8439C16.3578 48.6286 15.7502 47.1529 15.7502 45.4168H11.5835V22.5002C11.5835 21.3543 11.9915 20.3734 12.8075 19.5575C13.6234 18.7415 14.6043 18.3335 15.7502 18.3335H44.9168V26.6668H51.1668L57.4168 35.0002V45.4168H53.2502C53.2502 47.1529 52.6425 48.6286 51.4272 49.8439C50.212 51.0592 48.7363 51.6668 47.0002 51.6668C45.264 51.6668 43.7884 51.0592 42.5731 49.8439C41.3578 48.6286 40.7502 47.1529 40.7502 45.4168H28.2502C28.2502 47.1529 27.6425 48.6286 26.4272 49.8439C25.212 51.0592 23.7363 51.6668 22.0002 51.6668ZM22.0002 47.5002C22.5904 47.5002 23.0852 47.3005 23.4845 46.9012C23.8838 46.5019 24.0835 46.0071 24.0835 45.4168C24.0835 44.8266 23.8838 44.3318 23.4845 43.9325C23.0852 43.5331 22.5904 43.3335 22.0002 43.3335C21.4099 43.3335 20.9151 43.5331 20.5158 43.9325C20.1165 44.3318 19.9168 44.8266 19.9168 45.4168C19.9168 46.0071 20.1165 46.5019 20.5158 46.9012C20.9151 47.3005 21.4099 47.5002 22.0002 47.5002ZM15.7502 41.2502H17.4168C18.0071 40.6252 18.6842 40.1217 19.4481 39.7397C20.212 39.3578 21.0627 39.1668 22.0002 39.1668C22.9377 39.1668 23.7884 39.3578 24.5522 39.7397C25.3161 40.1217 25.9932 40.6252 26.5835 41.2502H40.7502V22.5002H15.7502V41.2502ZM47.0002 47.5002C47.5904 47.5002 48.0852 47.3005 48.4845 46.9012C48.8838 46.5019 49.0835 46.0071 49.0835 45.4168C49.0835 44.8266 48.8838 44.3318 48.4845 43.9325C48.0852 43.5331 47.5904 43.3335 47.0002 43.3335C46.4099 43.3335 45.9151 43.5331 45.5158 43.9325C45.1165 44.3318 44.9168 44.8266 44.9168 45.4168C44.9168 46.0071 45.1165 46.5019 45.5158 46.9012C45.9151 47.3005 46.4099 47.5002 47.0002 47.5002ZM44.9168 37.0835H53.771L49.0835 30.8335H44.9168V37.0835Z" fill="white"/>
</g>
</g>
<defs>
<clipPath id="clip0_707_2466">
<rect width="70" height="70" fill="white"/>
</clipPath>
</defs>
</svg>
