<svg width="70" height="70" viewBox="0 0 70 70" fill="none" xmlns="http://www.w3.org/2000/svg">
<g clip-path="url(#clip0_683_1171)">
<rect width="70" height="70" rx="35" fill="white"/>
<mask id="mask0_683_1171" style="mask-type:alpha" maskUnits="userSpaceOnUse" x="0" y="0" width="70" height="70">
<rect width="70" height="70" fill="#D9D9D9"/>
</mask>
<g mask="url(#mask0_683_1171)">
<path d="M34.9997 64.1668C30.965 64.1668 27.1733 63.4012 23.6247 61.87C20.0761 60.3387 16.9893 58.2606 14.3643 55.6356C11.7393 53.0106 9.66113 49.9238 8.12988 46.3752C6.59863 42.8266 5.83301 39.0349 5.83301 35.0002C5.83301 30.9654 6.59863 27.1738 8.12988 23.6252C9.66113 20.0766 11.7393 16.9897 14.3643 14.3647C16.9893 11.7397 20.0761 9.66162 23.6247 8.13037C27.1733 6.59912 30.965 5.8335 34.9997 5.8335C39.0344 5.8335 42.8261 6.59912 46.3747 8.13037C49.9233 9.66162 53.0101 11.7397 55.6351 14.3647C58.2601 16.9897 60.3382 20.0766 61.8695 23.6252C63.4007 27.1738 64.1663 30.9654 64.1663 35.0002C64.1663 39.0349 63.4007 42.8266 61.8695 46.3752C60.3382 49.9238 58.2601 53.0106 55.6351 55.6356C53.0101 58.2606 49.9233 60.3387 46.3747 61.87C42.8261 63.4012 39.0344 64.1668 34.9997 64.1668ZM34.9997 51.0418C37.1872 48.8543 39.1316 46.5939 40.833 44.2606C42.2913 42.2675 43.6281 40.08 44.8434 37.6981C46.0587 35.3161 46.6663 32.9585 46.6663 30.6252C46.6663 27.4168 45.524 24.6703 43.2393 22.3856C40.9545 20.1009 38.208 18.9585 34.9997 18.9585C31.7913 18.9585 29.0448 20.1009 26.7601 22.3856C24.4754 24.6703 23.333 27.4168 23.333 30.6252C23.333 32.9585 23.9406 35.3161 25.1559 37.6981C26.3712 40.08 27.708 42.2675 29.1663 44.2606C30.8677 46.5939 32.8122 48.8543 34.9997 51.0418ZM34.9997 35.0002C33.7844 35.0002 32.7514 34.5748 31.9007 33.7241C31.05 32.8734 30.6247 31.8404 30.6247 30.6252C30.6247 29.4099 31.05 28.3769 31.9007 27.5262C32.7514 26.6755 33.7844 26.2502 34.9997 26.2502C36.215 26.2502 37.2479 26.6755 38.0986 27.5262C38.9493 28.3769 39.3747 29.4099 39.3747 30.6252C39.3747 31.8404 38.9493 32.8734 38.0986 33.7241C37.2479 34.5748 36.215 35.0002 34.9997 35.0002Z" fill="#FF8DC7"/>
</g>
</g>
<defs>
<clipPath id="clip0_683_1171">
<rect width="70" height="70" rx="35" fill="white"/>
</clipPath>
</defs>
</svg>
