<svg width="36" height="34" viewBox="0 0 36 34" fill="none" xmlns="http://www.w3.org/2000/svg">
<rect x="0.823242" y="0.122925" width="34.2188" height="33.6136" rx="16.8068" fill="#FF8DC7"/>
<path d="M13.9238 24.1366C13.9238 24.2343 13.8115 24.3124 13.6699 24.3124C13.5088 24.327 13.3965 24.2489 13.3965 24.1366C13.3965 24.0389 13.5088 23.9608 13.6504 23.9608C13.7969 23.9462 13.9238 24.0243 13.9238 24.1366ZM12.4053 23.9169C12.3711 24.0145 12.4688 24.1268 12.6152 24.1561C12.7422 24.205 12.8887 24.1561 12.918 24.0585C12.9473 23.9608 12.8545 23.8485 12.708 23.8046C12.5811 23.7704 12.4395 23.8192 12.4053 23.9169ZM14.5635 23.8339C14.4219 23.868 14.3242 23.9608 14.3389 24.0731C14.3535 24.1708 14.4805 24.2343 14.627 24.2001C14.7686 24.1659 14.8662 24.0731 14.8516 23.9755C14.8369 23.8827 14.7051 23.8192 14.5635 23.8339ZM17.7764 5.12292C11.0039 5.12292 5.82324 10.2645 5.82324 17.037C5.82324 22.452 9.23145 27.0858 14.0996 28.7167C14.7246 28.829 14.9443 28.4432 14.9443 28.1259C14.9443 27.8231 14.9297 26.1532 14.9297 25.1278C14.9297 25.1278 11.5117 25.8602 10.7939 23.6727C10.7939 23.6727 10.2373 22.2518 9.43652 21.8856C9.43652 21.8856 8.31836 21.119 9.51465 21.1337C9.51465 21.1337 10.7305 21.2313 11.3994 22.3934C12.4687 24.2782 14.2607 23.7362 14.959 23.4139C15.0713 22.6327 15.3887 22.0907 15.7402 21.7684C13.0107 21.4657 10.2568 21.0702 10.2568 16.3729C10.2568 15.0302 10.6279 14.3563 11.4092 13.4969C11.2822 13.1796 10.8672 11.871 11.5361 10.1815C12.5566 9.86414 14.9053 11.4999 14.9053 11.4999C15.8818 11.2264 16.9316 11.0848 17.9717 11.0848C19.0117 11.0848 20.0615 11.2264 21.0381 11.4999C21.0381 11.4999 23.3867 9.85925 24.4072 10.1815C25.0762 11.8759 24.6611 13.1796 24.5342 13.4969C25.3154 14.3612 25.7939 15.035 25.7939 16.3729C25.7939 21.0848 22.918 21.4608 20.1885 21.7684C20.6377 22.1542 21.0186 22.8866 21.0186 24.0341C21.0186 25.6796 21.0039 27.7157 21.0039 28.1161C21.0039 28.4335 21.2285 28.8192 21.8486 28.7069C26.7314 27.0858 30.042 22.452 30.042 17.037C30.042 10.2645 24.5488 5.12292 17.7764 5.12292ZM10.5693 21.9637C10.5059 22.0126 10.5205 22.1249 10.6035 22.2177C10.6816 22.2958 10.7939 22.33 10.8574 22.2665C10.9209 22.2177 10.9063 22.1053 10.8232 22.0126C10.7451 21.9344 10.6328 21.9003 10.5693 21.9637ZM10.042 21.5682C10.0078 21.6317 10.0566 21.7098 10.1543 21.7587C10.2324 21.8075 10.3301 21.7928 10.3643 21.7245C10.3984 21.661 10.3496 21.5829 10.252 21.5341C10.1543 21.5048 10.0762 21.5194 10.042 21.5682ZM11.624 23.3065C11.5459 23.37 11.5752 23.5165 11.6875 23.6093C11.7998 23.7216 11.9414 23.7362 12.0049 23.6581C12.0684 23.5946 12.0391 23.4481 11.9414 23.3553C11.834 23.243 11.6875 23.2284 11.624 23.3065ZM11.0674 22.5887C10.9893 22.6376 10.9893 22.7645 11.0674 22.8768C11.1455 22.9891 11.2773 23.038 11.3408 22.9891C11.4189 22.9257 11.4189 22.7987 11.3408 22.6864C11.2725 22.5741 11.1455 22.5253 11.0674 22.5887Z" fill="white"/>
</svg>
