<svg width="32" height="32" viewBox="0 0 32 32" fill="none" xmlns="http://www.w3.org/2000/svg">
<rect width="31.875" height="31.8745" rx="15.9373" fill="#FF8DC7"/>
<path d="M9.89648 26.8745H5.36133V12.27H9.89648V26.8745ZM7.62646 10.2778C6.17627 10.2778 5 9.07666 5 7.62646C5 6.92988 5.27672 6.26183 5.76927 5.76927C6.26183 5.27672 6.92988 5 7.62646 5C8.32305 5 8.9911 5.27672 9.48366 5.76927C9.97621 6.26183 10.2529 6.92988 10.2529 7.62646C10.2529 9.07666 9.07617 10.2778 7.62646 10.2778ZM26.8701 26.8745H22.3447V19.7651C22.3447 18.0708 22.3105 15.8979 19.9868 15.8979C17.6289 15.8979 17.2676 17.7388 17.2676 19.6431V26.8745H12.7373V12.27H17.0869V14.2622H17.1504C17.7559 13.1147 19.2349 11.9038 21.4414 11.9038C26.0313 11.9038 26.875 14.9263 26.875 18.8521V26.8745H26.8701Z" fill="white"/>
</svg>
