<svg width="113" height="117" viewBox="0 0 113 117" fill="none" xmlns="http://www.w3.org/2000/svg">
<mask id="mask0_248_2835" style="mask-type:alpha" maskUnits="userSpaceOnUse" x="0" y="0" width="113" height="117">
<rect width="113" height="117" fill="#D9D9D9"/>
</mask>
<g mask="url(#mask0_248_2835)">
<path d="M28.2507 107.25C25.6611 107.25 23.4442 106.295 21.6001 104.386C19.756 102.477 18.834 100.181 18.834 97.5V39C18.834 36.3188 19.756 34.0234 21.6001 32.1141C23.4442 30.2047 25.6611 29.25 28.2507 29.25H37.6673C37.6673 23.8875 39.5114 19.2969 43.1996 15.4781C46.8878 11.6594 51.3215 9.75 56.5006 9.75C61.6798 9.75 66.1135 11.6594 69.8017 15.4781C73.4899 19.2969 75.334 23.8875 75.334 29.25H84.7506C87.3402 29.25 89.5571 30.2047 91.4012 32.1141C93.2453 34.0234 94.1673 36.3188 94.1673 39V97.5C94.1673 100.181 93.2453 102.477 91.4012 104.386C89.5571 106.295 87.3402 107.25 84.7506 107.25H28.2507ZM28.2507 97.5H84.7506V39H75.334V48.75C75.334 50.1312 74.8828 51.2891 73.9803 52.2234C73.0779 53.1578 71.9597 53.625 70.6256 53.625C69.2916 53.625 68.1734 53.1578 67.271 52.2234C66.3685 51.2891 65.9173 50.1312 65.9173 48.75V39H47.084V48.75C47.084 50.1312 46.6328 51.2891 45.7303 52.2234C44.8279 53.1578 43.7097 53.625 42.3756 53.625C41.0416 53.625 39.9234 53.1578 39.021 52.2234C38.1185 51.2891 37.6673 50.1312 37.6673 48.75V39H28.2507V97.5ZM47.084 29.25H65.9173C65.9173 26.5688 64.9953 24.2734 63.1512 22.3641C61.3071 20.4547 59.0902 19.5 56.5006 19.5C53.9111 19.5 51.6942 20.4547 49.8501 22.3641C48.006 24.2734 47.084 26.5688 47.084 29.25Z" fill="#7D7D7D"/>
</g>
</svg>
